<svg id="V9" xmlns="http://www.w3.org/2000/svg" viewBox="0 0 525.3 124.17">
  <defs>
    <style>
      .cls-1, .cls-2 {
        fill: #1d1d1b;
      }

      .cls-1 {
        fill-rule: evenodd;
      }
    </style>
  </defs>
  <g>
    <path class="cls-1" d="M124.17,10.08C128,19.7,121.82,41,98.6,59.29l-.07.05h0l.08.14c0,.15.1.34.1.34,42.46-25.21,42-68.63,14.16-58.26a7.41,7.41,0,0,1,1.05-.07C118.15,1.5,122.09,4.78,124.17,10.08Z"/>
    <path class="cls-1" d="M315.15,12.25c4,14.68-2.55,28.07-11,37.2a110.6,110.6,0,0,1-13.76,12.79s0,.3.45.84c2.9-1.37,12.73-8.48,21.14-18.29,10.87-12.68,16.78-31.28,4.67-39.44-3.35-2.42-9.17-2.42-13.94-.7C303.05,4.61,312.53,3.06,315.15,12.25Z"/>
    <path class="cls-1" d="M525.27,32.55A57.71,57.71,0,0,0,521.41,27c-.3-.31-7.79,17.6-20.68,23.77-15.15,7.27-36.38,3-41.83,2.18C448.82,51.46,437.83,64.43,433.83,71c-.41-4.63.87-10.19-3.62-8.89a48.15,48.15,0,0,0-12.69,5.35c-7.85,4.44-17.13,11.18-26,14.25-5.81,2-11.65,1.45-14.75,1.05-7.29-1-7.58-5.84-7.33-9.09.16-2.83,2.83-8.71,8.15-9.14,8.77-.94,6.6,6.61,2.45,9.52-2.77,1.94-7.39,2.29-7.39,2.29a5.27,5.27,0,0,1,.08.87c16.73-.52,19.54-12.16,14.46-16.79-3.79-3-12.56-.39-17.83,3.84-3.73,3-6.94,7-7.13,11.51a8.66,8.66,0,0,1-1.14,1.44c-2.63,2.69-11.32,8.38-19.32,6.46-7.23-1.73-13.22-7.57-16.91-13-3.25-4.76-4-9.51-11.67-6.75-6.42,2.34-9.86,12.1-14.5,16.42-2.56,2.38-5.77,1.42-7.81.37-3.36-1.82-7-7.54-7.52-21.79a83.77,83.77,0,0,1,10.37-43.29,50.16,50.16,0,0,1,7.63-10.25c-12,5.67-28,30.38-25.71,55.58A65.63,65.63,0,0,0,277,69.86c-8.66,7.31-34,17.39-42.52,8.53-5.61-6.5-.78-13.08,3.91-13.15,3.29-.29,6,2.29,6.79,1.71a60.62,60.62,0,0,1,5.67-6.83c-11.61-1.49-20.65,3.37-24.59,9.84-5.45,5.45-11.53,12.55-18.16,14.83-4.17,1.33-7.17,1.33-10.27-3.23-3.4-5.44.62-16.71.12-17.38S196,64.29,193,65.7s-1.29,4.42-2.62,10.17c-1.79,8.42-17.87,8.62-21,.75s-2.23-13.49-2.59-16.25a5.62,5.62,0,0,0-7.25-4.75c-3.83,1-17.16.92-17.16.92C135,52.12,125.73,55,126.45,60.07c.68,2.28,5.43,2.38,8.57,2.16l.3,0,.18,0c.84-.07,1.54-.16,1.94-.22l.09,0h.13a2.22,2.22,0,0,1,.49,1c2.63,10.84-10.27,17.64-18.67,19.17C89.15,86.29,87.82,21.29,109.42,2.86a38,38,0,0,0-14,10.78c-6.91,8.41-14.07,23.92-8.9,50C81,71.12,27.15,86.29,0,78.67l1.82,9.12c24.87.27,45.91-4.25,63.08-10.92s22.5-9.63,22.5-9.63,9,21.13,25.51,20.58c18.76-.7,31.15-15.48,32-28.6,2.64-.73,13-.1,15.57,2.24s-1.68,15.82,4.63,22.91c5.17,5.81,14.38,3.29,15,3.06,5.71-1.64,12.21-6.64,12.21-6.64s2.58,7.66,9.25,7.91,10.89-3.37,15.83-8.25c2.78-2.75,5.74-5.46,7.18-6.77a12.42,12.42,0,0,0,.31,7.94c7,18,49-7,52.43-9.67l.1-.31C281,84.74,288,87,292.65,87.15c4.69-.1,7.75-2.86,13.17-12.11C313,64.62,315.23,89,339.9,87.2a45.58,45.58,0,0,0,22.52-8.88,10.78,10.78,0,0,0,1.3,3.29c2.52,4.18,6.77,6,12,6.18,3,.09,9.51-.86,17.58-4.7,9.29-4.41,20.24-11.87,23.47-13.14,6-2.37,4.94-.14,5.25,3.3a113.77,113.77,0,0,0,1.78,12.14c.62,2.52,3.23,2.28,4.11,2.28,4.12,0,8.08-2.56,8.38-4.17,1.87-10,11.23-29,22.11-27a76.32,76.32,0,0,0,37-2.18C513.39,48.77,525.92,35.06,525.27,32.55Z"/>
  </g>
  <g>
    <rect class="cls-2" x="146.85" y="109.94" width="1.52" height="13.89"/>
    <path class="cls-2" d="M160,109.8c-1.11,0-3.35.14-3.35.14h-1.08v13.89h1.06c.11,0,2.61.13,3.65.13,4.21,0,6.82-2.81,6.82-7.33C167.05,112.48,164.27,109.8,160,109.8Zm5.5,7c0,3.42-2.1,5.72-5.24,5.72-1,0-2.48-.08-3.17-.12V111.31c.68,0,2.15-.09,2.93-.09A5.21,5.21,0,0,1,165.45,116.84Z"/>
    <polygon class="cls-2" points="175.04 117.37 180.46 117.37 180.46 115.92 175.04 115.92 175.04 111.38 181.13 111.38 181.34 109.94 173.52 109.94 173.52 123.83 181.75 123.83 181.9 122.38 175.04 122.38 175.04 117.37"/>
    <path class="cls-2" d="M197.27,121.16h0a.21.21,0,0,1,0-.06l-8-11.07-.07-.1h-1.43v13.89h1.45V112.55h0l0,0,8.26,11.46,1.2-.27V109.94h-1.44Z"/>
    <polygon class="cls-2" points="204.61 111.38 209.27 111.38 209.27 123.83 210.8 123.83 210.8 111.38 215.46 111.38 215.61 109.94 204.46 109.94 204.61 111.38"/>
    <rect class="cls-2" x="221.36" y="109.94" width="1.52" height="13.89"/>
    <polygon class="cls-2" points="228.78 111.38 233.45 111.38 233.45 123.83 234.97 123.83 234.97 111.38 239.64 111.38 239.79 109.94 228.63 109.94 228.78 111.38"/>
    <path class="cls-2" d="M249.62,116.33l-.16.29a1.64,1.64,0,0,0-.16-.29l-3.71-6.46-1.68.15,4.81,8.28v5.53h1.52V118.3l4.49-8.36H253Z"/>
    <path class="cls-2" d="M279.37,115v-.25l-1.52-.08v.25a10.44,10.44,0,0,1-1.1,4.46l-1.57-1.58c-2.25-2.3-2.71-3.55-2.71-4.74a1.7,1.7,0,0,1,1.81-1.9,3.67,3.67,0,0,1,2,.57l.28.21.48-1.52-.17-.1a5.52,5.52,0,0,0-2.54-.61A3.19,3.19,0,0,0,271,113a5.28,5.28,0,0,0,.59,2.45c-2.54.86-3.88,2.46-3.88,4.64,0,2.89,2.17,3.92,4.21,3.92a6.65,6.65,0,0,0,5-2.38l2.4,2.53,1.59-.42-3.12-3.29A12.25,12.25,0,0,0,279.37,115Zm-7.48,7.61a2.39,2.39,0,0,1-2.67-2.44c0-2.32,2.06-3.15,3.12-3.43a17.1,17.1,0,0,0,2,2.27l1.57,1.59A5.17,5.17,0,0,1,271.89,122.6Z"/>
    <path class="cls-2" d="M299.05,109.8c-1.11,0-3.35.14-3.35.14h-1.08v13.89h1.06c.11,0,2.61.13,3.65.13,4.21,0,6.83-2.81,6.83-7.33C306.16,112.48,303.37,109.8,299.05,109.8Zm5.51,7c0,3.42-2.11,5.72-5.25,5.72-1,0-2.48-.08-3.17-.12V111.31c.68,0,2.15-.09,2.93-.09A5.22,5.22,0,0,1,304.56,116.84Z"/>
    <polygon class="cls-2" points="314.14 117.37 319.56 117.37 319.56 115.92 314.14 115.92 314.14 111.38 320.23 111.38 320.44 109.94 312.62 109.94 312.62 123.83 320.85 123.83 321 122.38 314.14 122.38 314.14 117.37"/>
    <path class="cls-2" d="M330.46,115.93c-1.49-.78-2.78-1.45-2.78-2.68s1.12-2.09,2.79-2.09a8,8,0,0,1,2.74.5l.28.1.31-1.61-.21-.06a11.07,11.07,0,0,0-3-.39c-2.64,0-4.49,1.52-4.49,3.69,0,2,1.78,2.93,3.5,3.85,1.53.83,3,1.6,3,3s-1.27,2.26-3,2.26a5.4,5.4,0,0,1-3.07-.83l-.26-.2-.59,1.48.17.11a6.94,6.94,0,0,0,3.75.94c2.59,0,4.55-1.66,4.55-3.86S332.21,116.85,330.46,115.93Z"/>
    <rect class="cls-2" x="340.39" y="109.94" width="1.52" height="13.89"/>
    <path class="cls-2" d="M359,122.06a12,12,0,0,1-3,.48c-3.56,0-6-2.28-6-5.54,0-4.29,2.93-5.81,5.43-5.81a10.42,10.42,0,0,1,4.07.83l.24.12.56-1.45-.21-.1a11.87,11.87,0,0,0-4.68-.89c-3.5,0-7,2.27-7,7.34,0,4.58,3.74,7,7.43,7a14.67,14.67,0,0,0,4.58-.78l.16-.06V118H359Z"/>
    <path class="cls-2" d="M377,109.94v11.22h0l0-.06L369,110l-.07-.1h-1.42v13.89H369V112.55h0l0,0,8.26,11.46,1.2-.27V109.94Z"/>
  </g>
</svg>
