<?xml version="1.0" encoding="utf-8"?>
<!-- Generator: Adobe Illustrator 27.5.0, SVG Export Plug-In . SVG Version: 6.00 Build 0)  -->
<svg version="1.1" id="Ebene_1" xmlns="http://www.w3.org/2000/svg" xmlns:xlink="http://www.w3.org/1999/xlink" x="0px" y="0px"
	 viewBox="0 0 4205.2 4205.2" style="enable-background:new 0 0 4205.2 4205.2;" xml:space="preserve">
<style type="text/css">
	.st0{fill:#866857;}
	.st1{fill:none;stroke:#FFFFFF;stroke-width:152.3817;stroke-miterlimit:10;}
	.st2{fill:#FFFFFF;}
</style>
<g>
	<path class="st0" d="M3178.2,4205.2H1027c-567.2,0-1027-459.8-1027-1027V1027C0,459.8,459.8,0,1027,0h2151.2
		c567.2,0,1027,459.8,1027,1027v2151.2C4205.2,3745.4,3745.4,4205.2,3178.2,4205.2z"/>
	<circle class="st1" cx="2110.3" cy="2133.2" r="1342.1"/>
	<g>
		<g>
			<path class="st2" d="M1241.6,2132.3c0-331.1,264.9-606.1,594.3-606.1c106.6,0,182.8,20.4,247.1,77.3l1.1,235.3
				c-53.9-74-115.8-119.1-243.2-119.1c-222.4,0-390.5,188.5-390.5,412.6c0,224.1,164.7,410.9,390.5,410.9
				c127.3,0,256.5-84.2,327.8-177.6l132.3,143.7c-105.3,137.5-273.4,227.5-465.2,227.5C1506.5,2736.7,1241.6,2463.4,1241.6,2132.3z"
				/>
		</g>
		<g>
			<path class="st2" d="M3033.4,2716.4h-270l-410.9-482.2v482.2h-205.4V1546.5h205.4v494.1l351.5-494.1h247.9l-421.1,582.4
				L3033.4,2716.4z"/>
			
				<rect x="2175" y="2136" transform="matrix(0.5804 -0.8143 0.8143 0.5804 -839.8433 2839.187)" class="st2" width="320.3" height="197.1"/>
		</g>
	</g>
	<circle class="st2" cx="3437.4" cy="791.1" r="176.7"/>
</g>
</svg>
