<?xml version="1.0" encoding="UTF-8"?>
<!-- Generator: Adobe Illustrator 28.0.0, SVG Export Plug-In . SVG Version: 6.00 Build 0)  -->
<svg xmlns="http://www.w3.org/2000/svg" xmlns:xlink="http://www.w3.org/1999/xlink" version="1.1" id="Ebene_1" x="0px" y="0px" viewBox="0 0 382.7 127.6" style="enable-background:new 0 0 382.7 127.6;" xml:space="preserve">
<style type="text/css">
	.st0{fill:#FFFFFF;}
	.st1{fill-rule:evenodd;clip-rule:evenodd;fill:#FFFFFF;}
</style>
<g>
	<g>
		<path class="st0" d="M21.7,43.4c-0.2,5,3.3,8.7,7.7,8.7c2.6,0,5.3-0.9,7.1-2.1l2,3.7c-3.6,2.1-7.4,3-10.4,3c-8,0-14-5.7-14-14.4    c0-8.2,5.9-13.3,13.5-13.3c8.3,0,11.7,6.6,11.2,14.5H21.7z M32.2,39.5c0.3-4-1.2-6.8-4.7-6.8c-4,0-5.8,3.2-5.8,6.8H32.2z"></path>
		<path class="st0" d="M50.9,32.6c2.4-2.5,5.7-3.8,9.1-3.8c6.2,0,9.5,3.4,9.5,10.1V56h-7V39.7c0-3.7-1.6-6.1-5.3-6.1    c-3.4,0-6.1,2.3-6.1,6.6V56h-7V29.5h7V32.6z"></path>
		<path class="st0" d="M101.2,53.6c0,11.8-6.9,15.6-14.8,15.6c-4,0-8-0.9-11.1-2.5l1.4-4.3c2.6,1.6,5.6,2.3,9.2,2.3    c4.7,0,8.3-2.9,8.3-9v-3.5H94c-1.7,2.2-4.5,4.4-8.5,4.4c-7,0-11.7-5.7-11.7-14.2c0-6.9,5.1-13.6,12.3-13.6c3.2,0,6.4,1.5,7.9,3.9    h0.1v-3.2h7V53.6z M81.3,42.2c0,5.1,2,10.1,6.1,10.1c4.7,0,6.7-5.1,6.7-10.4c0-4.6-2.2-8.9-6.4-8.9C83.1,33.1,81.3,37.1,81.3,42.2    z"></path>
		<path class="st0" d="M113,43.4c-0.2,5,3.3,8.7,7.7,8.7c2.6,0,5.3-0.9,7.1-2.1l2,3.7c-3.6,2.1-7.4,3-10.4,3c-8,0-14-5.7-14-14.4    c0-8.2,5.9-13.3,13.5-13.3c8.3,0,11.7,6.6,11.2,14.5H113z M123.6,39.5c0.3-4-1.2-6.8-4.7-6.8c-4,0-5.8,3.2-5.8,6.8H123.6z"></path>
		<path class="st0" d="M135.3,56V17h7V56H135.3z"></path>
		<path class="st0" d="M149.5,17h7v16.1h0.1c1.9-2.7,5.2-4.3,8.4-4.3c8.4,0,11.7,7.5,11.7,13.3c0,7.6-4.8,14.5-12.3,14.5    c-3.3,0-6-1.6-7.9-3.9V56h-7V17z M156.5,43c0,4.8,1.9,9.3,6.7,9.3c4.5,0,6.1-5.5,6.1-10.2c0-4.6-2-9.1-6-9.1    C158.9,33.1,156.5,36.9,156.5,43z"></path>
		<path class="st0" d="M187.8,43.4c-0.2,5,3.3,8.7,7.7,8.7c2.6,0,5.4-0.9,7.1-2.1l2,3.7c-3.6,2.1-7.4,3-10.4,3c-8,0-14-5.7-14-14.4    c0-8.2,5.9-13.3,13.5-13.3c8.3,0,11.7,6.6,11.2,14.5H187.8z M198.4,39.5c0.3-4-1.2-6.8-4.7-6.8c-4,0-5.8,3.2-5.8,6.8H198.4z"></path>
		<path class="st0" d="M217.1,34.1h0.1l1.4-2.1c0.8-1.1,2.4-3.2,4.6-3.2c1.6,0,3.3,0.8,4.8,2.4l-2.6,4.9c-1.2-0.6-1.9-0.9-3.3-0.9    c-2.4,0-4.8,2-4.8,7.7V56h-7V29.5h7V34.1z"></path>
		<path class="st0" d="M255.8,53.6c0,11.8-6.9,15.6-14.8,15.6c-4,0-8-0.9-11.1-2.5l1.4-4.3c2.6,1.6,5.6,2.3,9.2,2.3    c4.7,0,8.3-2.9,8.3-9v-3.5h-0.1c-1.7,2.2-4.5,4.4-8.5,4.4c-7,0-11.7-5.7-11.7-14.2c0-6.9,5.1-13.6,12.3-13.6    c3.2,0,6.4,1.5,7.9,3.9h0.1v-3.2h7V53.6z M235.9,42.2c0,5.1,2,10.1,6.1,10.1c4.7,0,6.7-5.1,6.7-10.4c0-4.6-2.2-8.9-6.4-8.9    C237.8,33.1,235.9,37.1,235.9,42.2z"></path>
		<path class="st0" d="M267.7,43.4c-0.2,5,3.3,8.7,7.7,8.7c2.6,0,5.4-0.9,7.1-2.1l2,3.7c-3.6,2.1-7.4,3-10.4,3c-8,0-14-5.7-14-14.4    c0-8.2,5.9-13.3,13.5-13.3c8.3,0,11.7,6.6,11.2,14.5H267.7z M278.2,39.5c0.3-4-1.2-6.8-4.7-6.8c-4,0-5.8,3.2-5.8,6.8H278.2z"></path>
		<path class="st0" d="M296.9,34.1h0.1l1.4-2.1c0.8-1.1,2.4-3.2,4.6-3.2c1.6,0,3.3,0.8,4.8,2.4l-2.6,4.9c-1.2-0.6-1.9-0.9-3.3-0.9    c-2.4,0-4.8,2-4.8,7.7V56h-7V29.5h7V34.1z"></path>
	</g>
	<g>
		<path class="st0" d="M356.4,55.7c0-8.9-7.2-16.1-16.1-16.1c-8.9,0-16.1,7.2-16.1,16.1H356.4z"></path>
		<path class="st0" d="M368.5,65.1v45.4c-25.1,0-44.8-20.3-44.8-45.4H368.5z"></path>
		<path class="st1" d="M368.5,50.1V27.4h-21.8C357.7,30,366.4,38.9,368.5,50.1z"></path>
	</g>
	<g>
		<path class="st0" d="M103.8,77.8v9.1c0.5-0.6,1.8-2.4,4.9-2.4c3.1,0,6.6,2.1,6.6,7.6c0,3.6-1.7,7.6-6.6,7.6    c-2.9,0-4.3-1.5-4.9-2.3v1.9h-2.4V77.8H103.8z M108.2,97.7c3.3,0,4.5-2.9,4.5-5.6c0-3.5-2-5.3-4.4-5.3c-2,0-4.5,1.2-4.6,5.4    C103.7,96.1,106,97.7,108.2,97.7z"></path>
		<path class="st0" d="M132,94.9c-0.3,1-1.6,4.8-6.5,4.8c-4.2,0-7-2.9-7-7.7c0-5.4,3.9-7.5,6.9-7.5c2.6,0,5.4,1.5,6.3,5.1    c0.3,1.2,0.3,2.3,0.3,2.9h-10.9c-0.1,2.4,1.2,5.4,4.6,5.4c2.2,0,3.4-1.4,3.8-3.3L132,94.9z M129.4,90.8c-0.2-3.8-2.9-4.4-4.1-4.4    c-2.1,0-3.8,1.5-4.1,4.4H129.4z"></path>
		<path class="st0" d="M148.7,94.9c-0.3,1-1.6,4.8-6.5,4.8c-4.2,0-7-2.9-7-7.7c0-5.4,3.9-7.5,6.9-7.5c2.6,0,5.4,1.5,6.3,5.1    c0.3,1.2,0.3,2.3,0.3,2.9h-10.9c-0.1,2.4,1.2,5.4,4.6,5.4c2.2,0,3.4-1.4,3.8-3.3L148.7,94.9z M146.1,90.8    c-0.2-3.8-2.9-4.4-4.1-4.4c-2.1,0-3.8,1.5-4.1,4.4H146.1z"></path>
		<path class="st0" d="M155.2,77.9v2.8h-2.3v-2.8H155.2z M155.2,85v14.3h-2.3V85H155.2z"></path>
		<path class="st0" d="M162.4,85v2.1c1.3-2.3,3.6-2.5,4.5-2.5c1.8,0,4,0.9,4.7,3.3c0.2,0.8,0.2,1.7,0.2,2.9v8.5h-2.4v-8.1    c0-1.5,0-1.9-0.2-2.4c-0.4-1.4-1.8-2-3.1-2c-1.1,0-2,0.3-2.7,1.1c-1.1,1.1-1.1,2.2-1.1,3.2v8.2H160V85H162.4z"></path>
		<path class="st0" d="M189.1,77.8v21.5h-2.4v-1.9c-0.6,0.7-1.9,2.3-4.9,2.3c-4.1,0-6.6-3.1-6.6-7.6c0-5.6,3.6-7.5,6.5-7.5    c0.9,0,3.3,0.2,4.9,2.3v-9H189.1z M177.8,92.1c0,2.9,1.4,5.4,4.5,5.4c2.8,0,4.5-2.1,4.5-5.5c0-4-2.5-5.3-4.4-5.3    C180.5,86.7,177.8,87.8,177.8,92.1z"></path>
		<path class="st0" d="M196.4,85v2.6c1.4-2.7,3.9-2.8,4.9-2.8v2.6c-0.3,0-0.6-0.1-1-0.1c-1.4,0-2.6,0.5-3.3,1.7    c-0.6,1.1-0.6,2.3-0.6,3.6v6.6h-2.4V85H196.4z"></path>
		<path class="st0" d="M204.3,85h2.4v8.2c0,1.5,0,1.6,0.1,2c0.2,1.9,1.7,2.2,2.9,2.2c1.5,0,2.6-0.6,3.2-1.4c0.9-1,0.9-2.2,0.9-3.9    V85h2.4v14.3h-2.4v-2.2c-0.5,0.6-1.9,2.5-4.9,2.5c-2,0-3-0.9-3.5-1.5c-1-1.2-1-2.4-1-4.8V85z"></path>
		<path class="st0" d="M233.4,94.1c-0.1,0.6-0.2,1.4-0.8,2.4c-1.2,2.2-3.2,3.2-5.9,3.2c-5.2,0-7.1-3.9-7.1-7.4    c0-4.1,2.2-7.7,6.9-7.7c2.3,0,5.7,0.8,6.6,4.8l-2.7,0.2c-0.1-0.6-0.6-3.3-3.9-3.3c-4.2,0-4.3,4.5-4.3,5.8c0,1.5,0.3,2.9,0.9,3.9    c0.8,1.3,2.1,1.9,3.6,1.9c3.5,0,3.9-2.9,4-4L233.4,94.1z"></path>
		<path class="st0" d="M242.3,90.6l6.5,8.6h-3l-5.1-6.9l-1.7,1.8v5h-2.5V77.9h2.5v13.2l5.7-6.1h3L242.3,90.6z"></path>
		<path class="st0" d="M264,94.9c-0.3,1-1.6,4.8-6.5,4.8c-4.2,0-7-2.9-7-7.7c0-5.4,3.9-7.5,6.9-7.5c2.6,0,5.4,1.5,6.3,5.1    c0.3,1.2,0.3,2.3,0.3,2.9h-10.9c-0.1,2.4,1.2,5.4,4.6,5.4c2.2,0,3.4-1.4,3.8-3.3L264,94.9z M261.3,90.8c-0.2-3.8-2.9-4.4-4.1-4.4    c-2.1,0-3.8,1.5-4.1,4.4H261.3z"></path>
		<path class="st0" d="M270.4,85v2.1c1.3-2.3,3.6-2.5,4.5-2.5c1.8,0,4,0.9,4.7,3.3c0.2,0.8,0.2,1.7,0.2,2.9v8.5h-2.4v-8.1    c0-1.5,0-1.9-0.2-2.4c-0.4-1.4-1.8-2-3.1-2c-1.1,0-2,0.3-2.7,1.1c-1.1,1.1-1.1,2.2-1.1,3.2v8.2H268V85H270.4z"></path>
		<path class="st0" d="M297.1,77.8v21.5h-2.4v-1.9c-0.6,0.7-1.9,2.3-4.9,2.3c-4.1,0-6.6-3.1-6.6-7.6c0-5.6,3.6-7.5,6.5-7.5    c0.9,0,3.3,0.2,4.9,2.3v-9H297.1z M285.8,92.1c0,2.9,1.4,5.4,4.5,5.4c2.8,0,4.5-2.1,4.5-5.5c0-4-2.5-5.3-4.4-5.3    C288.5,86.7,285.8,87.8,285.8,92.1z"></path>
		<path class="st0" d="M304.2,95.8v3.4h-3v-3.4H304.2z"></path>
	</g>
</g>
</svg>
