<?xml version="1.0" encoding="utf-8"?>
<!-- Generator: Adobe Illustrator 27.2.0, SVG Export Plug-In . SVG Version: 6.00 Build 0)  -->
<svg version="1.1" id="Multi_x5F_Print" xmlns="http://www.w3.org/2000/svg" xmlns:xlink="http://www.w3.org/1999/xlink" x="0px"
	 y="0px" viewBox="0 0 157.32 170.08" style="enable-background:new 0 0 157.32 170.08;" xml:space="preserve">
<style type="text/css">
	.st0{fill:#FFFFFF;}
	.st1{fill:#E7000E;}
</style>
<g>
	<path class="st0" d="M23.15,121.94v17.46c0,1.23-0.89,2.11-2.15,2.11c-1.23,0-2.11-0.89-2.11-2.11v-12.92l-5.08,8.11
		c-0.65,1.02-1.3,1.36-2.25,1.36c-0.92,0-1.6-0.34-2.25-1.36l-5.05-8.05v12.86c0,1.23-0.89,2.11-2.15,2.11
		c-1.23,0-2.11-0.89-2.11-2.11v-17.15c0-1.74,1.02-2.83,2.83-2.83c1.6,0,2.42,0.85,3.41,2.42l5.59,9.14l6.03-9.79
		c0.68-1.09,1.4-1.77,2.83-1.77C22.27,119.42,23.15,120.47,23.15,121.94z"/>
	<path class="st0" d="M35.77,137.96c2.08,0,3.44-1.6,3.44-3.99v-6.92c0-1.23,0.89-2.08,2.08-2.08c1.26,0,2.11,0.85,2.11,2.08v7.23
		c0,4.57-3.03,7.57-7.64,7.57s-7.64-3-7.64-7.57v-7.23c0-1.23,0.85-2.08,2.08-2.08c1.23,0,2.08,0.85,2.08,2.08v6.92
		C32.3,136.36,33.69,137.96,35.77,137.96z"/>
	<path class="st0" d="M50.3,117.85c1.26,0,2.11,0.85,2.11,2.08v19.5c0,1.23-0.85,2.08-2.08,2.08s-2.08-0.85-2.08-2.08v-19.5
		C48.26,118.7,49.11,117.85,50.3,117.85z"/>
	<path class="st0" d="M66.77,137.45c1.13,0,1.71,0.75,1.71,1.57c0,1.57-1.71,2.83-4.4,2.83c-3.38,0-5.52-2.05-5.52-6.04v-7.06h-1.5
		c-1.09,0-1.84-0.75-1.84-1.88c0-1.06,0.75-1.81,1.84-1.81h1.53v-2.22c0-1.26,0.85-2.11,2.05-2.11c1.26,0,2.11,0.85,2.11,2.11v2.22
		h3.07c1.06,0,1.81,0.75,1.81,1.84c0,1.09-0.75,1.84-1.81,1.84h-3v7.54c0,1.23,0.55,1.67,1.47,1.67
		C65.21,137.96,65.99,137.45,66.77,137.45z"/>
	<path class="st0" d="M76.12,120.44c0,1.36-1.09,2.46-2.46,2.46c-1.33,0-2.42-1.09-2.42-2.46c0-1.33,1.09-2.42,2.42-2.42
		C75.03,118.02,76.12,119.11,76.12,120.44z M73.7,141.51c-1.23,0-2.08-0.85-2.08-2.08v-12.38c0-1.23,0.85-2.08,2.05-2.08
		c1.26,0,2.11,0.85,2.11,2.08v12.38C75.78,140.66,74.93,141.51,73.7,141.51z"/>
</g>
<g>
	<path class="st1" d="M94.43,127.77c0,0.99-0.72,1.71-1.67,1.71c-1.4,0-2.11-0.96-4.5-0.96c-2.66,0-4.36,2.08-4.36,4.71
		c0,2.66,1.7,4.74,4.36,4.74c2.39,0,3.1-0.95,4.5-0.95c0.95,0,1.67,0.72,1.67,1.74c0,1.88-2.76,3.1-5.93,3.1
		c-5.39,0-8.8-3.85-8.8-8.63c0-4.74,3.48-8.59,8.93-8.59C91.74,124.63,94.43,125.86,94.43,127.77z"/>
	<path class="st1" d="M104.73,124.63c4.74,0,8.52,3.85,8.52,8.59c0,4.77-3.78,8.63-8.52,8.63c-4.71,0-8.49-3.85-8.49-8.63
		C96.24,128.49,100.03,124.63,104.73,124.63z M104.77,128.52c-2.52,0-4.36,2.08-4.36,4.71c0,2.63,1.84,4.74,4.36,4.74
		c2.49,0,4.3-2.11,4.3-4.74C109.06,130.6,107.26,128.52,104.77,128.52z"/>
	<path class="st1" d="M119.26,117.85c1.26,0,2.11,0.85,2.11,2.08v19.5c0,1.23-0.85,2.08-2.08,2.08c-1.23,0-2.08-0.85-2.08-2.08
		v-19.5C117.22,118.7,118.07,117.85,119.26,117.85z"/>
	<path class="st1" d="M133.82,124.63c4.74,0,8.52,3.85,8.52,8.59c0,4.77-3.78,8.63-8.52,8.63c-4.71,0-8.49-3.85-8.49-8.63
		C125.33,128.49,129.12,124.63,133.82,124.63z M133.86,128.52c-2.52,0-4.36,2.08-4.36,4.71c0,2.63,1.84,4.74,4.36,4.74
		c2.49,0,4.3-2.11,4.3-4.74C138.16,130.6,136.35,128.52,133.86,128.52z"/>
	<path class="st1" d="M157.32,126.88c0,1.23-0.85,1.98-2.05,1.98c-0.65,0-1.36-0.2-2.32-0.2c-1.5,0-2.49,1.13-2.49,2.86v7.91
		c0,1.23-0.85,2.08-2.08,2.08c-1.23,0-2.08-0.85-2.08-2.08v-12.38c0-1.23,0.85-2.08,2.05-2.08s2.01,0.75,2.11,1.84
		c0.89-1.26,2.25-2.18,4.06-2.18C155.89,124.63,157.32,125.35,157.32,126.88z"/>
</g>
<g>
	<path class="st0" d="M55.54,155.26h4.39c3.21,0,5.32,1.75,5.32,4.43c0,2.66-2.14,4.43-5.41,4.43h-3.57v5.05
		c0,0.39-0.3,0.68-0.7,0.68c-0.39,0-0.66-0.3-0.66-0.68v-13.25C54.9,155.53,55.17,155.26,55.54,155.26z M56.24,162.9h3.77
		c2.3,0,3.82-1.27,3.82-3.2c0-1.93-1.52-3.21-3.82-3.21h-3.77V162.9z"/>
	<path class="st0" d="M74.48,159.56c0,0.34-0.25,0.59-0.64,0.59c-0.32,0-0.66-0.18-1.34-0.18c-1.45,0-2.39,1.25-2.39,3.27v5.96
		c0,0.39-0.3,0.66-0.68,0.66s-0.66-0.27-0.66-0.66v-9.62c0-0.39,0.27-0.66,0.66-0.66s0.68,0.27,0.68,0.66v0.82
		c0.57-1.02,1.55-1.7,2.8-1.7C73.54,158.69,74.48,158.92,74.48,159.56z"/>
	<path class="st0" d="M78.87,155.76c0,0.5-0.41,0.91-0.91,0.91c-0.52,0-0.91-0.41-0.91-0.91s0.39-0.91,0.91-0.91
		C78.46,154.85,78.87,155.26,78.87,155.76z M77.96,169.85c-0.39,0-0.66-0.27-0.66-0.66v-9.62c0-0.39,0.27-0.66,0.66-0.66
		s0.68,0.27,0.68,0.66v9.62C78.64,169.58,78.34,169.85,77.96,169.85z"/>
	<path class="st0" d="M92.21,163.1v6.09c0,0.39-0.27,0.66-0.68,0.66c-0.39,0-0.66-0.27-0.66-0.66v-5.84c0-2.09-1.23-3.41-3.21-3.41
		c-1.84,0-3.02,1.11-3.21,2.93v6.32c0,0.39-0.3,0.66-0.68,0.66s-0.66-0.27-0.66-0.66v-9.62c0-0.39,0.27-0.66,0.66-0.66
		s0.68,0.27,0.68,0.66v0.93c0.68-1.11,1.89-1.82,3.46-1.82C90.51,158.69,92.21,160.44,92.21,163.1z"/>
	<path class="st0" d="M101.35,168.4c0.34,0,0.5,0.23,0.5,0.5c0,0.52-0.75,1.18-2.16,1.18c-1.91,0-2.98-1.07-2.98-3.11v-6.82h-1.36
		c-0.34,0-0.59-0.23-0.59-0.61c0-0.34,0.25-0.59,0.59-0.59h1.36v-1.93c0-0.41,0.27-0.68,0.68-0.68c0.39,0,0.66,0.27,0.66,0.68v1.93
		h2.89c0.34,0,0.59,0.25,0.59,0.61c0,0.36-0.25,0.59-0.59,0.59h-2.86v6.86c0,1.21,0.59,1.82,1.64,1.82
		C100.65,168.83,100.96,168.4,101.35,168.4z"/>
</g>
<path class="st1" d="M117.16,93.23c6.75,0,12.24-5.49,12.24-12.24V13.03C129.4,5.24,124.01,0,115.98,0c-5.44,0-9.97,2.78-13.46,8.27
	L79.97,42.95l-0.07-0.11L57.42,8.28C53.93,2.78,49.4,0,43.96,0c-8.03,0-13.42,5.24-13.42,13.03v67.95c0,6.75,5.49,12.24,12.24,12.24
	c6.86,0,12.24-5.38,12.24-12.24V48.84l4.83,7.36l7.76,11.87c0.74,1.1,1.45,2.03,2.19,2.85l0.08,0.09c0.13,0.14,0.27,0.29,0.4,0.43
	c0.1,0.11,0.21,0.21,0.32,0.31l0.12,0.12c0.05,0.04,0.09,0.09,0.14,0.13c0.15,0.14,0.32,0.28,0.51,0.45l0.06,0.05
	c0.03,0.02,0.06,0.05,0.09,0.07c0.17,0.14,0.36,0.28,0.55,0.42l0.04,0.03c0.05,0.04,0.1,0.08,0.15,0.11
	c0.17,0.12,0.35,0.24,0.54,0.36c0.09,0.06,0.18,0.11,0.27,0.17c0.17,0.1,0.34,0.2,0.51,0.29c0.12,0.07,0.25,0.13,0.38,0.19
	c0.16,0.08,0.32,0.15,0.48,0.23c0.16,0.07,0.32,0.13,0.48,0.2c0.15,0.06,0.3,0.12,0.46,0.17c0.19,0.06,0.38,0.12,0.57,0.18
	l0.09,0.03c0.12,0.03,0.24,0.07,0.36,0.1c0.22,0.06,0.44,0.1,0.66,0.14l0.13,0.03c0.1,0.02,0.21,0.04,0.31,0.06
	c0.25,0.04,0.51,0.07,0.76,0.1c0.05,0.01,0.1,0.01,0.15,0.02c0.09,0.01,0.18,0.02,0.27,0.03c0.37,0.03,0.77,0.05,1.18,0.05
	c0.02,0,0.05,0,0.08,0l0.04,0c0.01,0,0.03,0,0.04,0c0.41,0,0.8-0.02,1.18-0.05c0.09-0.01,0.18-0.02,0.27-0.03
	c0.05-0.01,0.1-0.01,0.15-0.02c0.25-0.03,0.52-0.06,0.76-0.1c0.11-0.02,0.21-0.04,0.31-0.06l0.13-0.03
	c0.21-0.04,0.44-0.09,0.66-0.14c0.13-0.03,0.25-0.07,0.37-0.11l0.08-0.02c0.19-0.06,0.38-0.12,0.57-0.18
	c0.16-0.05,0.31-0.11,0.46-0.17c0.16-0.06,0.32-0.13,0.48-0.2c0.17-0.07,0.33-0.15,0.48-0.23c0.13-0.06,0.25-0.13,0.38-0.19
	c0.18-0.09,0.35-0.19,0.51-0.29c0.09-0.06,0.18-0.11,0.27-0.17c0.19-0.12,0.37-0.24,0.54-0.36c0.04-0.03,0.09-0.06,0.13-0.1
	l0.06-0.04c0.19-0.14,0.38-0.28,0.55-0.42l0.15-0.13c0.2-0.17,0.37-0.31,0.51-0.45c0.05-0.04,0.09-0.09,0.14-0.13l0.12-0.11
	c0.11-0.1,0.22-0.21,0.32-0.31c0.14-0.14,0.27-0.29,0.4-0.43l0.08-0.09c0.74-0.82,1.46-1.75,2.19-2.85l7.76-11.87l4.83-7.36v32.14
	C104.92,87.85,110.3,93.23,117.16,93.23z"/>
<g>
</g>
<g>
</g>
<g>
</g>
<g>
</g>
<g>
</g>
<g>
</g>
</svg>
