<svg height="178.26666" viewBox="0 0 641.02667 178.26666" width="641.02667" xmlns="http://www.w3.org/2000/svg"><g transform="matrix(.13333333 0 0 -.13333333 0 178.26667)"><path d="m2323 176-81-175h-214v214z" fill="#ba5c29"/><path d="m2028 556 396-162-63-136-333 88z" fill="#ba5c29"/><path d="m2028 1337v-645l434-215 73 156-52 32-63 166-51-34-89 55-100 274-33 30-12 73-48-20z" fill="#c9c8c6"/><path d="m2028 346-2028-151v136l2028 225z" fill="#f25c1b"/><path d="m2028 215v-214h-2028v140z" fill="#f25c1b"/><g fill="#fff"><path d="m2028 692v645l-184-158-60-3-43 30-165-67-149-6-149-178-78 29-128-77-126-9-282-258-664-258z"/><path d="m2692.34 234.07 109.14 235.364 5.83-235.364zm72.46 323.254-165.25-356.375h236.54l-8.83 356.375z"/><path d="m3197.97 496.602h69.69c18.94 0 32.69-3.414 42.06-10.454 5.63-4.218 13.12-12.14 13.12-32.062 0-9.461-.8-17.449-2.7-26-5.39-26.07-15.72-44.785-30.7-55.609-16.2-11.696-34.79-17.379-56.83-17.379h-65.23zm99.62-148.352c24.8 17.906 41.34 46.215 49.18 84.145 2.48 11.117 3.67 22.691 3.67 35.496 0 37.761-17.34 58.691-31.88 69.597-17.77 13.352-40.74 19.836-70.22 19.836h-107.56l-50.87-235.336h123.38c31.81 0 60.16 8.832 84.3 26.262"/><path d="m4576.5 234.07 109.14 235.364 5.83-235.364zm72.46 323.254-165.26-356.375h236.54l-8.82 356.375z"/><path d="m2743.58 607-281.48-607h26.01l266.11 573.891h89.21l14.2-573.891h65.92l-15.04 607z"/><path d="m2591.87 184.391-85.51-184.391h77.45l57.34 123.66h168.89l3.06-123.66h27.96l-4.57 184.391z"/><path d="m3213.29 305.422h-126.96l-66.02-305.422h70.31l52.89 244.699h82.89l51.66-244.699h31.55l-65.05 308.172c-10.06-1.832-20.5-2.75-31.27-2.75"/><path d="m3376.01 574.449c-28.77 21.598-65.22 32.551-108.35 32.551h-158.79l-131.2-607h25.7l124.04 573.891h120.93c33.2 0 59.42-7.578 80.16-23.157 17.57-13.168 38.5-38.246 38.5-82.843 0-14.036-1.32-26.786-4.04-38.977-8.68-41.98-27.42-73.684-55.67-94.094-14.3-10.308-29.87-17.949-46.62-22.851l65.87-311.969h64.36l-57.03 270.102c6.93 3.867 13.67 8.148 20.21 12.867 38.06 27.5 63.02 68.801 74 121.926 3.48 15.585 5.16 31.675 5.16 49.191 0 49.922-20.34 92.684-57.23 120.363"/><path d="m3617.36 261.09h145l13.12 60.711h-215.3l-52.86-244.5119h270.07l7.15 33.1089h-199.75z"/><path d="m3579.18 607-131.21-607h312.71l13.12 60.7188h-287l110.92 513.1722h279.88l7.16 33.109z"/><path d="m3563.76 338.367h215.3l7.16 33.121h-144.99l27.05 125.114h192.61l13.13 60.722h-262.93z"/><path d="m4096.45 573.891 97.03-496.6019h24.45l114.52 529.7109h-25.7l-80.02-370.121-72.31 370.121h-142.9l-131.22-607h25.7l124.06 573.891z"/><path d="m4349.39 607-118.09-546.2812h-51.45l-97.03 496.6052h-39.39l-120.49-557.324h70.31l87.86 406.414 79.41-406.414h127.95l131.23 607z"/><path d="m4792.67 607h-164.93l-281.47-607h25.99l266.12 573.891h89.21l14.2-573.891h65.92z"/><path d="m4476.02 184.391-85.5-184.391h77.45l57.34 123.66h168.9l3.05-123.66h27.95l-4.56 184.391z"/><path d="m3211.5 853.469h26.76c24.59 0 39.65 12.293 45.19 36.879.49 2.168.84 4.156 1.09 5.968.24 1.805.36 3.914.36 6.325 0 16.39-10.13 24.589-30.37 24.589h-26.76zm-80.99-146.074 56.4 261.05h71.96c26.27 0 45.61-4.941 58.03-14.824 12.41-9.887 18.62-23.863 18.62-41.941 0-6.996-.72-14.102-2.17-21.332-5.55-24.828-17.3-44.055-35.25-57.672-17.96-13.617-42.37-20.43-73.22-20.43h-22.05l-22.42-104.851z"/><path d="m3349.62 707.395 56.4 261.05h49.9l-56.4-261.05z"/><path d="m3526.42 707.395h-49.89l56.41 261.05h49.89l-47-216.937h80.26l-9.4-44.113z"/><path d="m3724.19 806.461h49.54l-1.45 105.582h-.72zm-92.19-99.066 121.12 261.05h64l6.51-261.05h-47.72l-1.09 54.96h-69.07l-25.66-54.96z"/><path d="m4057.93 968.445-9.76-44.109h-58.21l-46.64-216.941h-49.9l46.64 216.941h-58.21l9.77 44.109h57.85 49.89z"/><path d="m4157.36 968.445-39.78-182.59c-.97-4.101-1.44-8.441-1.44-13.019 0-8.195 2.22-14.406 6.68-18.617 4.47-4.223 11.63-6.328 21.52-6.328 23.62 0 38.2 12.652 43.75 37.964l39.77 182.59h49.9l-40.13-182.953c-3.14-14.461-7.84-26.82-14.11-37.058-6.27-10.25-13.86-18.688-22.78-25.313-8.92-6.633-18.98-11.512-30.19-14.644-11.2-3.125-23.2-4.7-35.97-4.7-21.7 0-38.76 4.578-51.17 13.743-12.41 9.156-18.62 23.863-18.62 44.113 0 7.711.84 15.664 2.53 23.859l40.14 182.953z"/><path d="m4437.94 895.77c-1.44 12.293-4.46 21.21-9.05 26.757-4.58 5.543-11.2 8.317-19.88 8.317-8.92 0-16.27-2.531-22.05-7.594-5.79-5.062-9.65-12.055-11.57-20.973-.25-.964-.37-2.41-.37-4.339 0-5.305 2.17-10.122 6.52-14.461 4.33-4.34 9.69-8.559 16.08-12.653 6.39-4.101 13.32-8.441 20.79-13.019 7.48-4.578 14.4-9.758 20.79-15.543s11.76-12.539 16.09-20.25c4.35-7.715 6.51-16.758 6.51-27.121-.48-5.305-1.2-10.844-2.16-16.629-2.42-11.336-6.52-21.574-12.3-30.735-5.79-9.164-12.96-16.992-21.52-23.5-8.55-6.507-18.38-11.515-29.46-15.004-11.09-3.496-23.14-5.246-36.16-5.246-20.49 0-36.83 5.786-48.99 17.356-12.17 11.57-18.87 30.25-20.07 56.043l51.34 10.484v-2.168c0-7.476.84-13.801 2.53-18.98 1.69-5.188 3.92-9.344 6.69-12.477s5.91-5.422 9.4-6.867c3.5-1.445 7.05-2.168 10.67-2.168 8.68 0 16.63 2.711 23.86 8.137 7.23 5.418 11.81 13.066 13.75 22.957.23 1.203.41 2.285.54 3.254.12.961.18 2.043.18 3.254 0 6.503-2.17 12.289-6.51 17.351-4.34 5.063-9.71 9.82-16.09 14.281-6.39 4.461-13.32 8.86-20.79 13.2-7.47 4.339-14.41 9.218-20.79 14.644-6.39 5.422-11.75 11.57-16.09 18.438-4.34 6.875-6.51 15.242-6.51 25.129 0 1.929.12 4.035.37 6.332.23 2.285.59 4.636 1.07 7.05 4.82 22.653 15.25 40.496 31.28 53.508 16.03 13.016 37.07 19.524 63.1 19.524 11.08 0 20.79-1.567 29.1-4.696 8.32-3.136 15.19-7.535 20.61-13.199 5.43-5.664 9.52-12.355 12.3-20.066 2.76-7.719 4.15-16.153 4.15-25.313z"/></g></g></svg>